<!-- Generated by IcoMoon.io -->
<svg version="1.1" xmlns="http://www.w3.org/2000/svg" width="1902" height="1024" viewBox="0 0 1902 1024">
<title></title>
<g id="icomoon-ignore">
</g>
<path d="M694.857 128l128.143 122.083-237.857-0.141v592.315h621.714v-226.47l128 121.947v-609.733h-640zM1201.232 601.457l-363.333-346.152h363.333v346.152zM1088.422 755.615h-404.901v-398.362h28.621v371.387h376.28v26.975zM764.268 951.974l-15.089-31.027h-12.454l21.873 41.072v23.929h11.295v-23.929l21.875-41.072h-12.411l-15.089 31.027zM819.893 920.947h2.679l24.552 65h-11.785l-5.259-15.223h-25.163l-5.248 15.223h-11.741l24.464-65h7.501zM807.98 961.841h19.030l-9.525-27.575-9.505 27.575zM886.53 951.071c-0.49-0.624-0.962-1.229-1.413-1.819-1.668-2.203-2.962-4.33-3.884-6.384-0.923-2.085-1.384-4.228-1.384-6.429 0-3.392 0.699-6.309 2.097-8.75s3.379-4.315 5.939-5.625c2.558-1.34 5.55-2.010 8.973-2.010 3.302 0 6.146 0.669 8.527 2.010 2.41 1.309 4.255 3.050 5.535 5.222 1.309 2.172 1.964 4.553 1.964 7.142 0 2.053-0.371 3.93-1.115 5.627-0.744 1.695-1.77 3.244-3.081 4.643-1.309 1.399-2.827 2.723-4.553 3.973l-4.515 3.286 12.871 15.19c0.424-0.834 0.808-1.712 1.152-2.628 1.103-2.858 1.653-6.027 1.653-9.51h9.285c0 3.156-0.313 6.146-0.938 8.975-0.594 2.827-1.562 5.445-2.902 7.856-0.543 1-1.157 1.957-1.843 2.869l9.521 11.238h-12.454l-3.778-4.443c-2.044 1.552-4.268 2.765-6.669 3.641-3.154 1.13-6.517 1.697-10.088 1.697-4.317 0-8.051-0.79-11.205-2.366-3.156-1.578-5.595-3.75-7.322-6.519-1.697-2.768-2.545-5.937-2.545-9.509 0-2.65 0.55-4.97 1.651-6.965 1.103-2.022 2.606-3.899 4.509-5.625 1.759-1.596 3.763-3.191 6.012-4.787zM891.864 957.603l-1.346 0.978c-1.578 1.28-2.754 2.516-3.527 3.707-0.744 1.161-1.234 2.233-1.472 3.215-0.24 0.982-0.358 1.845-0.358 2.589 0 1.904 0.402 3.63 1.205 5.179 0.834 1.547 2.039 2.781 3.617 3.705 1.607 0.892 3.557 1.339 5.848 1.339 2.47 0 4.866-0.55 7.188-1.651 1.163-0.567 2.267-1.249 3.31-2.048l-14.464-17.011zM894.433 945.73l3.986-2.684c1.876-1.249 3.215-2.47 4.019-3.661 0.803-1.22 1.205-2.737 1.205-4.553 0-1.547-0.596-2.975-1.787-4.286-1.19-1.309-2.873-1.964-5.045-1.964-1.518 0-2.798 0.357-3.838 1.072-1.042 0.684-1.83 1.607-2.366 2.768-0.507 1.13-0.759 2.395-0.759 3.794 0 1.339 0.342 2.723 1.026 4.151 0.686 1.399 1.622 2.873 2.812 4.42 0.243 0.311 0.492 0.624 0.746 0.944zM1008.152 964.787h-11.162c-0.327 2.827-1.011 5.222-2.053 7.188-1.011 1.935-2.514 3.407-4.507 4.42-1.966 1.011-4.539 1.518-7.724 1.518-2.619 0-4.866-0.521-6.742-1.563-1.874-1.040-3.421-2.514-4.643-4.42-1.19-1.904-2.083-4.182-2.677-6.83-0.567-2.679-0.848-5.656-0.848-8.929v-5.491c0-3.452 0.313-6.517 0.936-9.196 0.655-2.708 1.622-4.985 2.902-6.832 1.28-1.845 2.873-3.244 4.778-4.195 1.904-0.953 4.136-1.43 6.696-1.43 3.125 0 5.654 0.536 7.589 1.607 1.935 1.042 3.394 2.56 4.376 4.553 1.011 1.995 1.666 4.39 1.964 7.188h11.16c-0.446-4.345-1.666-8.199-3.661-11.562-1.964-3.363-4.731-5.998-8.304-7.901-3.571-1.905-7.945-2.858-13.124-2.858-4.078 0-7.753 0.715-11.028 2.143-3.244 1.428-6.025 3.496-8.347 6.206-2.322 2.677-4.107 5.906-5.358 9.686-1.22 3.78-1.83 8.007-1.83 12.679v5.402c0 4.672 0.596 8.9 1.787 12.679 1.22 3.78 2.977 7.009 5.268 9.688 2.291 2.648 5.045 4.701 8.258 6.16 3.215 1.428 6.832 2.143 10.849 2.143 5.239 0 9.688-0.953 13.349-2.858s6.502-4.509 8.527-7.812c2.024-3.333 3.215-7.13 3.571-11.385zM1070.16 955.233v-3.571c0-4.91-0.655-9.3-1.964-13.169-1.28-3.899-3.11-7.217-5.491-9.955-2.381-2.768-5.222-4.866-8.527-6.296-3.304-1.457-6.965-2.187-10.982-2.187-3.988 0-7.634 0.73-10.937 2.187-3.275 1.43-6.117 3.527-8.527 6.296-2.383 2.737-4.228 6.056-5.537 9.955-1.309 3.869-1.964 8.26-1.964 13.169v3.571c0 4.912 0.655 9.317 1.964 13.215 1.34 3.899 3.215 7.217 5.625 9.955 2.412 2.739 5.253 4.837 8.527 6.296 3.304 1.428 6.95 2.143 10.939 2.143 4.017 0 7.678-0.715 10.982-2.143 3.302-1.459 6.131-3.557 8.481-6.296 2.381-2.737 4.211-6.056 5.491-9.955s1.92-8.304 1.92-13.215zM1058.955 951.572v3.661c0 3.632-0.357 6.846-1.072 9.644-0.684 2.798-1.695 5.164-3.035 7.099-1.339 1.904-2.975 3.348-4.91 4.33-1.935 0.953-4.153 1.428-6.652 1.428-2.47 0-4.672-0.475-6.607-1.428-1.935-0.982-3.602-2.427-5.001-4.33-1.368-1.935-2.41-4.301-3.125-7.099-0.713-2.798-1.072-6.012-1.072-9.644v-3.661c0-3.63 0.358-6.83 1.072-9.598 0.715-2.798 1.741-5.133 3.081-7.009 1.368-1.904 3.021-3.333 4.955-4.284 1.935-0.982 4.136-1.474 6.607-1.474s4.688 0.492 6.652 1.474c1.964 0.951 3.615 2.381 4.955 4.284 1.368 1.876 2.395 4.211 3.079 7.009 0.715 2.768 1.072 5.968 1.072 9.598z"></path>
</svg>
